<svg width="433" height="272" viewBox="0 0 433 272" fill="none" xmlns="http://www.w3.org/2000/svg">
<path d="M325.372 269.995H72.5469V272H325.372V269.995Z" fill="url(#paint0_linear_2002_142)"/>
<path d="M433 269.995H418.73V272H433V269.995Z" fill="url(#paint1_linear_2002_142)"/>
<path d="M88.8379 239.178L91.0097 270.997H125.518L123.194 236.818L88.8379 239.178Z" fill="url(#paint2_linear_2002_142)"/>
<path d="M126.588 272H90.0752L87.7715 238.245L124.122 235.748L126.588 272ZM91.9423 269.995H124.448L122.264 237.886L89.9023 240.11L91.9423 269.995Z" fill="url(#paint3_linear_2002_142)"/>
<path d="M60.2786 270.997L100.144 173.653L68.2773 164.08L24.2559 270.997H60.2786Z" fill="url(#paint4_linear_2002_142)"/>
<path d="M60.9502 272H22.7637L67.7006 162.859L101.49 173.01L60.9502 272ZM25.7521 269.995H59.6099L98.8009 174.296L68.857 165.3L25.7521 269.995Z" fill="url(#paint5_linear_2002_142)"/>
<path d="M141.628 270.997H179.165C179.022 269.478 178.893 267.926 178.781 266.329C177.542 247.863 179.084 234.073 183.351 225C187.667 215.934 194.143 211.11 202.779 210.527C211.225 209.915 218.125 213.83 223.431 222.262C228.786 230.702 232.038 244.124 233.325 262.597C233.521 265.516 233.646 268.312 233.707 270.997H271.739C271.749 267.413 271.642 263.755 271.381 260C270.576 247.872 268.558 236.691 265.358 226.561C262.159 216.431 257.667 207.776 251.876 200.645C246.037 193.505 238.919 188.088 230.521 184.394C222.068 180.739 212.319 179.247 201.213 180.004C189.909 180.78 180.311 183.573 172.373 188.377C164.482 193.187 158.08 199.494 153.306 207.365C148.484 215.228 145.131 224.388 143.147 234.878C141.211 245.375 140.618 256.707 141.462 268.89C141.511 269.598 141.572 270.296 141.628 270.997Z" fill="url(#paint6_linear_2002_142)"/>
<path d="M272.737 272H232.731L232.708 271.02C232.645 268.294 232.518 265.483 232.328 262.664C231.056 244.392 227.778 230.98 222.588 222.8C217.51 214.728 210.865 210.945 202.853 211.526C194.523 212.088 188.44 216.637 184.254 225.43C180.065 234.337 178.559 248.076 179.779 266.261C179.89 267.846 180.018 269.39 180.161 270.903L180.264 272H140.705L140.585 270.501C140.543 269.987 140.502 269.475 140.468 268.955C139.63 256.878 140.202 245.351 142.167 234.694C144.178 224.064 147.639 214.694 152.456 206.838C157.242 198.95 163.769 192.449 171.856 187.52C179.905 182.649 189.76 179.784 201.147 179.003C212.288 178.244 222.301 179.748 230.918 183.474C239.428 187.217 246.738 192.779 252.65 200.008C258.484 207.194 263.08 216.026 266.312 226.259C269.532 236.455 271.573 247.784 272.379 259.934C272.629 263.54 272.75 267.265 272.739 271.001L272.737 272ZM234.682 269.995H270.741C270.729 266.642 270.61 263.308 270.385 260.069C269.59 248.077 267.578 236.906 264.408 226.864C261.253 216.872 256.776 208.264 251.103 201.277C245.394 194.297 238.335 188.925 230.122 185.311C221.805 181.716 212.101 180.265 201.284 181.003C190.217 181.762 180.664 184.532 172.892 189.234C165.085 193.995 158.782 200.27 154.162 207.884C149.47 215.537 146.096 224.679 144.132 235.063C142.198 245.549 141.636 256.907 142.462 268.819C142.488 269.215 142.519 269.605 142.55 269.995H178.071C177.967 268.818 177.871 267.622 177.785 266.399C176.542 247.866 178.111 233.794 182.448 224.571C186.913 215.192 193.731 210.132 202.714 209.525C203.304 209.483 203.893 209.461 204.472 209.461C212.493 209.461 219.156 213.587 224.277 221.725C229.721 230.307 233.007 243.653 234.323 262.526C234.493 265.042 234.613 267.549 234.682 269.995Z" fill="url(#paint7_linear_2002_142)"/>
<path d="M411.488 270.997L408.947 255.201L391.029 256.419L388.313 216.46L353.956 218.821L356.681 258.731L321.086 261.203L365.312 153.303L333.397 143.722L280.994 270.997H411.488Z" fill="url(#paint8_linear_2002_142)"/>
<path d="M412.663 272H279.5L332.819 142.502L366.656 152.659L322.622 260.091L355.614 257.801L352.89 217.889L389.241 215.392L391.959 255.35L409.787 254.137L412.663 272ZM282.488 269.995H410.315L408.105 256.263L390.101 257.488L387.383 217.531L355.022 219.755L357.746 259.664L319.55 262.315L363.968 153.947L333.976 144.944L282.488 269.995Z" fill="url(#paint9_linear_2002_142)"/>
<path d="M217.41 189.591C217.754 193.865 209.065 198.055 198.003 198.948C186.941 199.843 177.694 197.103 177.352 192.829C177.008 188.555 185.697 184.365 196.759 183.471C207.821 182.577 217.066 185.317 217.41 189.591Z" fill="white"/>
<path d="M236.889 191.983C236.273 193.708 232.534 193.94 228.538 192.504C224.542 191.067 221.803 188.504 222.418 186.78C223.034 185.056 226.773 184.823 230.769 186.26C234.765 187.696 237.504 190.26 236.889 191.983Z" fill="white"/>
<path d="M11.9936 269.995H0V272H11.9936V269.995Z" fill="url(#paint10_linear_2002_142)"/>
<path d="M186.56 190.718C186.558 190.718 186.556 190.718 186.554 190.718C185.174 190.715 184.059 189.59 184.062 188.206C184.113 166.322 177.609 151.965 175.94 149.295C175.604 148.965 175.357 148.537 175.249 148.041C175.044 147.103 175.393 146.093 176.146 145.499C176.899 144.905 177.936 144.796 178.796 145.216C181.144 146.364 184.659 157.457 184.694 157.569C186.703 164.012 189.092 174.56 189.059 188.218C189.055 189.6 187.936 190.718 186.56 190.718Z" fill="url(#paint11_linear_2002_142)"/>
<path d="M245.983 162.528C245.361 162.528 244.739 162.297 244.256 161.833C243.259 160.875 243.224 159.289 244.178 158.289C245.859 156.516 250.229 150.685 248.296 147.302C246.275 143.763 238.116 140.575 233.448 139.398C232.11 139.06 231.299 137.699 231.634 136.357C231.97 135.015 233.327 134.203 234.664 134.536C236.11 134.9 248.9 138.274 252.632 144.81C256.824 152.149 248.16 161.367 247.789 161.756C247.297 162.268 246.64 162.528 245.983 162.528Z" fill="url(#paint12_linear_2002_142)"/>
<path d="M228.397 70.837C228.005 70.837 227.606 70.7438 227.235 70.5473C226.014 69.9016 225.546 68.3867 226.189 67.1616L242.807 35.5163C243.448 34.2921 244.962 33.8209 246.182 34.4666C247.403 35.1112 247.871 36.6271 247.228 37.8523L230.61 69.4976C230.164 70.3508 229.295 70.837 228.397 70.837Z" fill="url(#paint13_linear_2002_142)"/>
<path d="M163.622 92.9519C163.535 92.9519 163.447 92.9479 163.359 92.9378L123.213 88.721C121.841 88.5776 120.845 87.3435 120.988 85.9669C121.132 84.5904 122.362 83.5958 123.734 83.7352L163.879 87.951C165.252 88.0954 166.248 89.3286 166.104 90.7051C165.969 91.9944 164.885 92.9519 163.622 92.9519Z" fill="url(#paint14_linear_2002_142)"/>
<path d="M248.028 140.48L181.598 161.088C180.259 161.503 178.837 160.751 178.424 159.408L154.145 80.6553C153.947 80.0146 154.01 79.3208 154.319 78.7253L162.88 62.258C163.193 61.6554 163.734 61.2033 164.38 61.0028L218.363 44.2567C219.703 43.8417 221.124 44.5936 221.538 45.9371L249.702 137.296C250.117 138.638 249.368 140.064 248.028 140.48Z" fill="white"/>
<path d="M182.607 84.5692C182.785 85.1219 182.824 85.6857 182.723 86.2605C182.623 86.8354 182.337 87.3724 181.868 87.8716C181.395 88.3603 180.713 88.7504 179.821 89.0418L177.861 89.6822L179.286 94.0933L177.513 94.6727L174 83.8014L177.734 82.5816C178.563 82.3105 179.311 82.2278 179.975 82.3335C180.647 82.4253 181.202 82.6705 181.641 83.0691C182.089 83.4644 182.411 83.9644 182.607 84.5692ZM179.351 87.5871C180.025 87.3669 180.479 87.0513 180.714 86.6405C180.944 86.2192 180.969 85.727 180.787 85.1639C180.403 83.9751 179.542 83.5992 178.204 84.0363L176.244 84.6767L177.391 88.2275L179.351 87.5871Z" fill="#6B7280"/>
<path d="M184.302 87.6471C184.022 86.7816 183.951 85.9575 184.088 85.1749C184.235 84.3889 184.556 83.7135 185.05 83.1486C185.551 82.5699 186.174 82.1585 186.921 81.9146C187.595 81.6943 188.225 81.6385 188.811 81.747C189.403 81.8416 189.914 82.038 190.342 82.336L189.938 81.0846L191.727 80.5001L194.512 89.119L192.723 89.7034L192.309 88.4208C192.139 88.9257 191.839 89.3985 191.408 89.839C190.977 90.2796 190.43 90.6083 189.766 90.8251C189.03 91.0657 188.295 91.0982 187.562 90.9227C186.825 90.7368 186.166 90.3642 185.584 89.805C185.009 89.2319 184.582 88.5126 184.302 87.6471ZM191.328 85.3862C191.136 84.7918 190.845 84.3163 190.454 83.9596C190.074 83.5996 189.65 83.3692 189.182 83.2685C188.714 83.1679 188.251 83.1921 187.795 83.3412C187.339 83.4903 186.951 83.7439 186.631 84.1021C186.307 84.4498 186.092 84.8833 185.984 85.4026C185.884 85.9081 185.93 86.4581 186.122 87.0525C186.314 87.6469 186.602 88.1293 186.985 88.4998C187.379 88.8669 187.812 89.106 188.283 89.217C188.762 89.3143 189.224 89.2901 189.67 89.1444C190.127 88.9953 190.515 88.7417 190.835 88.3835C191.155 88.0254 191.363 87.5883 191.46 87.0724C191.564 86.5427 191.52 85.9806 191.328 85.3862Z" fill="#6B7280"/>
<path d="M196.998 78.6225C197.662 78.4057 198.291 78.3498 198.887 78.4549C199.49 78.5462 200.001 78.7425 200.419 79.0439L200.015 77.7925L201.804 77.2081L204.634 85.9677C204.89 86.7602 204.952 87.5183 204.819 88.242C204.689 88.9761 204.365 89.6238 203.847 90.185C203.339 90.7429 202.65 91.1641 201.779 91.4487C200.617 91.8282 199.564 91.867 198.617 91.565C197.675 91.2735 197 90.6754 196.593 89.7708L198.351 89.1965C198.631 89.6008 199.032 89.8674 199.555 89.9962C200.092 90.1321 200.667 90.1001 201.278 89.9002C201.994 89.6664 202.499 89.2593 202.793 88.679C203.097 88.0954 203.115 87.3864 202.845 86.5521L202.38 85.1131C202.211 85.618 201.912 86.096 201.485 86.547C201.064 86.9841 200.527 87.3094 199.874 87.5229C199.127 87.7669 198.382 87.8028 197.638 87.6307C196.902 87.4447 196.243 87.0721 195.661 86.5129C195.086 85.9399 194.658 85.2206 194.378 84.355C194.099 83.4895 194.027 82.6654 194.164 81.8828C194.312 81.0968 194.632 80.4214 195.126 79.8565C195.627 79.2778 196.251 78.8665 196.998 78.6225ZM201.405 82.0941C201.213 81.4997 200.921 81.0242 200.531 80.6675C200.151 80.3075 199.727 80.0771 199.258 79.9765C198.79 79.8758 198.328 79.9 197.872 80.0491C197.415 80.1982 197.027 80.4518 196.707 80.81C196.384 81.1577 196.168 81.5913 196.061 82.1106C195.961 82.616 196.007 83.166 196.199 83.7604C196.391 84.3548 196.678 84.8372 197.062 85.2077C197.456 85.5748 197.888 85.8139 198.36 85.925C198.839 86.0223 199.301 85.998 199.747 85.8523C200.203 85.7033 200.591 85.4496 200.911 85.0915C201.231 84.7333 201.44 84.2962 201.537 83.7803C201.641 83.2506 201.597 82.6885 201.405 82.0941Z" fill="#6B7280"/>
<path d="M212.847 78.1311C212.951 78.4544 213.025 78.7532 213.068 79.0274L206.518 81.1671C206.792 81.8384 207.225 82.3081 207.816 82.5762C208.407 82.8442 209.035 82.8698 209.699 82.6529C210.653 82.3412 211.197 81.7195 211.332 80.7878L213.245 80.1626C213.242 81.0399 212.981 81.8458 212.461 82.5804C211.949 83.3012 211.19 83.8259 210.184 84.1546C209.365 84.4223 208.569 84.4803 207.798 84.3288C207.034 84.1635 206.357 83.8081 205.768 83.2627C205.186 82.7034 204.752 81.9806 204.465 81.0942C204.179 80.2079 204.104 79.3734 204.241 78.5908C204.385 77.7943 204.719 77.1086 205.244 76.5335C205.78 75.9551 206.468 75.5287 207.308 75.2542C208.117 74.9899 208.895 74.9317 209.642 75.0796C210.389 75.2274 211.044 75.5671 211.605 76.0984C212.163 76.6193 212.577 77.2969 212.847 78.1311ZM210.814 78.1728C210.591 77.5192 210.187 77.0689 209.603 76.8217C209.019 76.5745 208.389 76.561 207.715 76.7813C207.103 76.9812 206.644 77.3504 206.336 77.889C206.025 78.4171 205.936 79.0285 206.069 79.723L210.814 78.1728Z" fill="#6B7280"/>
<path d="M198.85 108.838L197.077 109.418L189.117 103.043L191.741 111.161L189.967 111.74L186.449 100.853L188.223 100.274L196.177 106.633L193.559 98.5307L195.332 97.9513L198.85 108.838Z" fill="#6B7280"/>
<path d="M204.476 107.156C203.667 107.42 202.877 107.477 202.106 107.325C201.331 107.163 200.649 106.809 200.06 106.264C199.468 105.708 199.028 104.987 198.742 104.101C198.459 103.225 198.399 102.385 198.564 101.582C198.729 100.779 199.084 100.086 199.63 99.5044C200.176 98.9226 200.858 98.4978 201.678 98.2301C202.497 97.9625 203.297 97.9027 204.079 98.0508C204.861 98.199 205.553 98.5493 206.156 99.1017C206.759 99.6542 207.201 100.368 207.485 101.244C207.768 102.12 207.822 102.962 207.647 103.768C207.471 104.575 207.102 105.278 206.539 105.877C205.983 106.462 205.295 106.888 204.476 107.156ZM203.976 105.607C204.432 105.458 204.822 105.21 205.145 104.862C205.479 104.511 205.699 104.076 205.807 103.556C205.914 103.037 205.867 102.465 205.664 101.839C205.462 101.213 205.173 100.726 204.796 100.376C204.416 100.016 203.994 99.7908 203.529 99.7006C203.064 99.6104 202.603 99.6398 202.147 99.7889C201.691 99.938 201.301 100.186 200.977 100.534C200.664 100.878 200.465 101.307 200.378 101.819C200.288 102.322 200.344 102.885 200.546 103.511C200.846 104.439 201.312 105.083 201.944 105.441C202.583 105.786 203.26 105.841 203.976 105.607Z" fill="#6B7280"/>
<path d="M209.92 97.3012L211.462 102.072C211.566 102.395 211.715 102.606 211.907 102.705C212.106 102.79 212.388 102.773 212.751 102.654L213.84 102.298L214.32 103.784L212.92 104.242C212.121 104.503 211.449 104.515 210.902 104.278C210.355 104.042 209.946 103.501 209.673 102.657L208.131 97.8857L207.12 98.2161L206.65 96.7613L207.661 96.431L206.969 94.288L208.758 93.7035L209.45 95.8465L211.535 95.1654L212.005 96.6202L209.92 97.3012Z" fill="#6B7280"/>
<path d="M186.318 122.05L186.789 123.505L182.199 125.004L183.235 128.211L186.814 127.042L187.284 128.496L183.706 129.665L185.242 134.421L183.469 135L179.956 124.129L186.318 122.05Z" fill="#6B7280"/>
<path d="M194.772 131.463C193.963 131.727 193.173 131.784 192.401 131.632C191.627 131.47 190.945 131.116 190.356 130.571C189.763 130.015 189.324 129.294 189.038 128.408C188.755 127.532 188.695 126.692 188.86 125.889C189.025 125.086 189.38 124.393 189.926 123.811C190.472 123.23 191.154 122.805 191.973 122.537C192.793 122.269 193.593 122.21 194.375 122.358C195.157 122.506 195.849 122.856 196.452 123.409C197.054 123.961 197.497 124.675 197.78 125.551C198.063 126.427 198.117 127.269 197.942 128.075C197.767 128.882 197.398 129.584 196.835 130.184C196.279 130.769 195.591 131.195 194.772 131.463ZM194.271 129.914C194.728 129.765 195.118 129.517 195.441 129.169C195.775 128.818 195.995 128.383 196.102 127.863C196.21 127.344 196.162 126.772 195.96 126.146C195.758 125.52 195.469 125.033 195.092 124.683C194.712 124.323 194.289 124.098 193.825 124.008C193.36 123.917 192.899 123.947 192.443 124.096C191.986 124.245 191.597 124.493 191.273 124.841C190.96 125.185 190.76 125.614 190.674 126.126C190.584 126.628 190.64 127.192 190.842 127.818C191.142 128.746 191.608 129.389 192.24 129.748C192.879 130.093 193.556 130.148 194.271 129.914Z" fill="#6B7280"/>
<path d="M205.44 118.293L208.225 126.912L206.451 127.491L206.123 126.475C205.957 126.921 205.68 127.323 205.291 127.68C204.909 128.024 204.464 128.279 203.956 128.445C203.282 128.665 202.63 128.723 201.999 128.617C201.379 128.509 200.825 128.229 200.335 127.778C199.856 127.323 199.489 126.705 199.237 125.923L197.599 120.855L199.357 120.28L200.909 125.083C201.158 125.854 201.542 126.386 202.061 126.678C202.576 126.959 203.165 126.991 203.829 126.775C204.493 126.558 204.951 126.183 205.203 125.651C205.462 125.105 205.467 124.446 205.218 123.675L203.666 118.873L205.44 118.293Z" fill="#6B7280"/>
<path d="M211.592 116.128C212.266 115.907 212.913 115.852 213.533 115.96C214.163 116.066 214.718 116.346 215.198 116.8C215.677 117.254 216.043 117.873 216.296 118.655L217.939 123.739L216.181 124.313L214.624 119.495C214.374 118.723 213.992 118.197 213.477 117.916C212.958 117.624 212.367 117.586 211.704 117.803C211.04 118.02 210.578 118.401 210.319 118.947C210.067 119.479 210.065 120.131 210.315 120.903L211.871 125.721L210.098 126.3L207.313 117.681L209.086 117.102L209.405 118.087C209.581 117.638 209.859 117.241 210.241 116.897C210.634 116.55 211.084 116.294 211.592 116.128Z" fill="#6B7280"/>
<path d="M217.738 118.997C217.458 118.131 217.387 117.307 217.524 116.524C217.671 115.738 217.991 115.063 218.485 114.498C218.986 113.919 219.615 113.506 220.373 113.259C220.933 113.076 221.523 113.022 222.143 113.096C222.77 113.156 223.31 113.337 223.763 113.639L222.418 109.478L224.207 108.893L227.948 120.468L226.159 121.053L225.739 119.755C225.584 120.267 225.29 120.743 224.86 121.183C224.439 121.621 223.897 121.948 223.233 122.164C222.486 122.408 221.741 122.444 220.998 122.272C220.261 122.086 219.602 121.714 219.02 121.154C218.445 120.581 218.017 119.862 217.738 118.997ZM224.764 116.736C224.572 116.141 224.28 115.666 223.89 115.309C223.51 114.949 223.086 114.719 222.618 114.618C222.149 114.517 221.687 114.542 221.231 114.691C220.774 114.84 220.386 115.093 220.066 115.452C219.743 115.799 219.528 116.233 219.42 116.752C219.32 117.258 219.366 117.808 219.558 118.402C219.75 118.996 220.038 119.479 220.421 119.849C220.815 120.216 221.248 120.455 221.719 120.567C222.198 120.664 222.66 120.64 223.106 120.494C223.562 120.345 223.95 120.091 224.27 119.733C224.59 119.375 224.799 118.938 224.896 118.422C225 117.892 224.956 117.33 224.764 116.736Z" fill="#6B7280"/>
<path d="M228.522 108.262L230.771 115.914L229.294 116.397L226.64 108.877L228.522 108.262ZM231.184 119.532C230.862 119.637 230.557 119.616 230.269 119.468C229.98 119.32 229.784 119.085 229.679 118.761C229.575 118.438 229.596 118.131 229.743 117.841C229.89 117.551 230.124 117.354 230.446 117.249C230.757 117.147 231.057 117.17 231.345 117.318C231.634 117.466 231.83 117.701 231.935 118.024C232.039 118.348 232.018 118.654 231.871 118.945C231.724 119.235 231.495 119.431 231.184 119.532Z" fill="#6B7280"/>
<path d="M180.847 162.205C179.288 162.205 177.93 161.2 177.469 159.704L153.189 80.952C152.912 80.0527 152.998 79.0973 153.432 78.2631L161.994 61.7958C162.428 60.9617 163.19 60.325 164.086 60.0463L218.069 43.2993C218.41 43.194 218.761 43.1409 219.115 43.1409C220.675 43.1409 222.033 44.1455 222.493 45.6413L250.659 137C250.938 137.905 250.849 138.866 250.408 139.704C249.968 140.542 249.227 141.159 248.325 141.438L181.894 162.045C181.553 162.151 181.201 162.205 180.847 162.205ZM219.115 45.145C218.962 45.145 218.808 45.1681 218.659 45.2142L164.676 61.9612C164.287 62.0815 163.955 62.3593 163.767 62.7222L155.205 79.1895C155.017 79.5524 154.979 79.9675 155.099 80.3595L179.378 159.111C179.625 159.909 180.495 160.382 181.302 160.131L247.734 139.523C248.128 139.401 248.448 139.134 248.64 138.769C248.831 138.404 248.87 137.986 248.749 137.593L220.583 46.2338C220.383 45.5821 219.794 45.145 219.115 45.145Z" fill="url(#paint15_linear_2002_142)"/>
<path d="M163.44 61.5462C163.411 61.5722 163.387 61.6013 163.359 61.6284L154.161 79.1163C154.111 79.2697 154.077 79.4261 154.057 79.5855L165.328 76.0885C166.636 75.6825 167.368 74.2899 166.964 72.9786L163.44 61.5462Z" fill="url(#paint16_linear_2002_142)"/>
<path d="M152.871 81.0022L153.065 79.4592C153.093 79.2376 153.141 79.0201 153.21 78.8055L153.277 78.6471L162.658 60.9125C162.699 60.8684 162.738 60.8293 162.779 60.7932L163.938 59.7686L167.919 72.6818C168.193 73.572 168.106 74.5165 167.672 75.3406C167.238 76.1647 166.511 76.7703 165.623 77.046L152.871 81.0022ZM163.184 64.1097L155.895 77.9653L165.033 75.1311C165.409 75.0138 165.72 74.7561 165.904 74.4062C166.088 74.0553 166.126 73.6533 166.009 73.2753L163.184 64.1097Z" fill="url(#paint17_linear_2002_142)"/>
<path d="M94.2554 20.2169H57.6C56.6166 20.2169 55.6641 19.8069 54.9875 19.0901C54.3048 18.3682 53.959 17.4258 54.011 16.4362C54.038 15.9119 54.1209 15.3825 54.2558 14.8632C55.0114 11.9457 57.4002 9.71898 60.3396 9.19263C61.9427 8.90489 63.5679 9.11543 65.0001 9.78214C66.2194 4.12059 71.2118 0 77.1166 0C82.9485 0 87.8738 3.97321 89.1751 9.58062C89.8608 9.4543 90.5544 9.42523 91.264 9.50142C94.8511 9.8834 97.6796 12.8941 97.8425 16.5044C97.8775 17.523 97.5316 18.4183 96.87 19.1051C96.1894 19.8119 95.2359 20.2169 94.2554 20.2169ZM61.7538 10.8599C61.391 10.8599 61.0202 10.893 60.6544 10.9592C58.4346 11.3572 56.5586 13.1067 55.9869 15.3143C55.883 15.7174 55.819 16.1264 55.797 16.5305C55.771 17.0238 55.9439 17.494 56.2848 17.8549C56.6306 18.2198 57.0973 18.4213 57.6 18.4213H94.2554C94.7541 18.4213 95.2379 18.2158 95.5837 17.8569C95.9055 17.523 96.0734 17.0929 96.0584 16.6458C95.9345 13.8967 93.7467 11.5687 91.0761 11.285C90.2815 11.2008 89.507 11.287 88.7544 11.5346L87.7509 11.8645L87.591 10.8178C86.7924 5.58835 82.3868 1.79361 77.1146 1.79361C71.6755 1.79361 67.1399 5.88012 66.5652 11.299L66.4053 12.8099L65.164 11.9387C64.1575 11.2329 62.9782 10.8599 61.7538 10.8599Z" fill="url(#paint18_linear_2002_142)"/>
<path d="M344.64 19.8861H314.439C313.239 19.8861 312.066 19.3988 311.22 18.5487C310.412 17.7356 309.969 16.6718 309.971 15.551C309.973 15.0176 310.023 14.4812 310.12 13.9559C310.723 10.6814 313.193 7.99955 316.413 7.1253C317.857 6.73329 319.342 6.71525 320.775 7.07217C322.773 2.94958 326.908 0.328842 331.524 0.328842C336.861 0.328842 341.585 3.95415 343.028 9.05025C346.418 9.27583 349.107 12.1141 349.107 15.571C349.09 17.9712 347.087 19.8861 344.64 19.8861ZM318.7 8.61113C318.094 8.61113 317.484 8.69433 316.881 8.85775C314.321 9.55254 312.357 11.682 311.879 14.2827C311.801 14.7038 311.761 15.1329 311.759 15.557C311.757 16.1966 312.016 16.8092 312.485 17.2814C312.997 17.7967 313.709 18.0915 314.438 18.0915H344.639C346.081 18.0915 347.307 16.9526 347.317 15.6041C347.317 12.9573 345.197 10.8308 342.591 10.8308C342.509 10.8449 342.441 10.8529 342.372 10.8559L341.619 10.89L341.458 10.1501C340.45 5.49912 336.272 2.12345 331.523 2.12345C327.365 2.12345 323.666 4.62388 322.1 8.49382L321.779 9.28385L320.977 9.00313C320.232 8.74346 319.467 8.61113 318.7 8.61113Z" fill="url(#paint19_linear_2002_142)"/>
<defs>
<linearGradient id="paint0_linear_2002_142" x1="198.96" y1="269.995" x2="198.96" y2="272" gradientUnits="userSpaceOnUse">
<stop stop-color="#00359E"/>
<stop offset="0.5" stop-color="#0042C5"/>
<stop offset="1" stop-color="#2970FF"/>
</linearGradient>
<linearGradient id="paint1_linear_2002_142" x1="425.865" y1="269.995" x2="425.865" y2="272" gradientUnits="userSpaceOnUse">
<stop stop-color="#00359E"/>
<stop offset="0.5" stop-color="#0042C5"/>
<stop offset="1" stop-color="#2970FF"/>
</linearGradient>
<linearGradient id="paint2_linear_2002_142" x1="107.178" y1="236.818" x2="107.178" y2="270.997" gradientUnits="userSpaceOnUse">
<stop stop-color="#00359E"/>
<stop offset="0.5" stop-color="#0042C5"/>
<stop offset="1" stop-color="#2970FF"/>
</linearGradient>
<linearGradient id="paint3_linear_2002_142" x1="107.18" y1="235.748" x2="107.18" y2="272" gradientUnits="userSpaceOnUse">
<stop stop-color="#00359E"/>
<stop offset="0.5" stop-color="#0042C5"/>
<stop offset="1" stop-color="#2970FF"/>
</linearGradient>
<linearGradient id="paint4_linear_2002_142" x1="62.2" y1="164.08" x2="62.2" y2="270.997" gradientUnits="userSpaceOnUse">
<stop stop-color="#00359E"/>
<stop offset="0.5" stop-color="#0042C5"/>
<stop offset="1" stop-color="#2970FF"/>
</linearGradient>
<linearGradient id="paint5_linear_2002_142" x1="62.1271" y1="162.859" x2="62.1271" y2="272" gradientUnits="userSpaceOnUse">
<stop stop-color="#00359E"/>
<stop offset="0.5" stop-color="#0042C5"/>
<stop offset="1" stop-color="#2970FF"/>
</linearGradient>
<linearGradient id="paint6_linear_2002_142" x1="206.414" y1="179.812" x2="206.414" y2="270.997" gradientUnits="userSpaceOnUse">
<stop stop-color="#00359E"/>
<stop offset="0.5" stop-color="#0042C5"/>
<stop offset="1" stop-color="#2970FF"/>
</linearGradient>
<linearGradient id="paint7_linear_2002_142" x1="206.417" y1="178.812" x2="206.417" y2="272" gradientUnits="userSpaceOnUse">
<stop stop-color="#00359E"/>
<stop offset="0.5" stop-color="#0042C5"/>
<stop offset="1" stop-color="#2970FF"/>
</linearGradient>
<linearGradient id="paint8_linear_2002_142" x1="346.241" y1="143.722" x2="346.241" y2="270.997" gradientUnits="userSpaceOnUse">
<stop stop-color="#00359E"/>
<stop offset="0.5" stop-color="#0042C5"/>
<stop offset="1" stop-color="#2970FF"/>
</linearGradient>
<linearGradient id="paint9_linear_2002_142" x1="346.081" y1="142.502" x2="346.081" y2="272" gradientUnits="userSpaceOnUse">
<stop stop-color="#00359E"/>
<stop offset="0.5" stop-color="#0042C5"/>
<stop offset="1" stop-color="#2970FF"/>
</linearGradient>
<linearGradient id="paint10_linear_2002_142" x1="5.99679" y1="269.995" x2="5.99679" y2="272" gradientUnits="userSpaceOnUse">
<stop stop-color="#00359E"/>
<stop offset="0.5" stop-color="#0042C5"/>
<stop offset="1" stop-color="#2970FF"/>
</linearGradient>
<linearGradient id="paint11_linear_2002_142" x1="182.125" y1="144.963" x2="182.125" y2="190.718" gradientUnits="userSpaceOnUse">
<stop stop-color="#00359E"/>
<stop offset="0.5" stop-color="#0042C5"/>
<stop offset="1" stop-color="#2970FF"/>
</linearGradient>
<linearGradient id="paint12_linear_2002_142" x1="242.667" y1="134.461" x2="242.667" y2="162.528" gradientUnits="userSpaceOnUse">
<stop stop-color="#00359E"/>
<stop offset="0.5" stop-color="#0042C5"/>
<stop offset="1" stop-color="#2970FF"/>
</linearGradient>
<linearGradient id="paint13_linear_2002_142" x1="236.709" y1="34.1772" x2="236.709" y2="70.837" gradientUnits="userSpaceOnUse">
<stop stop-color="#00359E"/>
<stop offset="0.5" stop-color="#0042C5"/>
<stop offset="1" stop-color="#2970FF"/>
</linearGradient>
<linearGradient id="paint14_linear_2002_142" x1="143.546" y1="83.7222" x2="143.546" y2="92.9519" gradientUnits="userSpaceOnUse">
<stop stop-color="#00359E"/>
<stop offset="0.5" stop-color="#0042C5"/>
<stop offset="1" stop-color="#2970FF"/>
</linearGradient>
<linearGradient id="paint15_linear_2002_142" x1="201.924" y1="43.1409" x2="201.924" y2="162.205" gradientUnits="userSpaceOnUse">
<stop stop-color="#00359E"/>
<stop offset="0.5" stop-color="#0042C5"/>
<stop offset="1" stop-color="#2970FF"/>
</linearGradient>
<linearGradient id="paint16_linear_2002_142" x1="160.566" y1="61.5462" x2="160.566" y2="79.5855" gradientUnits="userSpaceOnUse">
<stop stop-color="#00359E"/>
<stop offset="0.5" stop-color="#0042C5"/>
<stop offset="1" stop-color="#2970FF"/>
</linearGradient>
<linearGradient id="paint17_linear_2002_142" x1="160.473" y1="59.7686" x2="160.473" y2="81.0022" gradientUnits="userSpaceOnUse">
<stop stop-color="#00359E"/>
<stop offset="0.5" stop-color="#0042C5"/>
<stop offset="1" stop-color="#2970FF"/>
</linearGradient>
<linearGradient id="paint18_linear_2002_142" x1="75.9254" y1="0" x2="75.9254" y2="20.2169" gradientUnits="userSpaceOnUse">
<stop stop-color="#00359E"/>
<stop offset="0.5" stop-color="#0042C5"/>
<stop offset="1" stop-color="#2970FF"/>
</linearGradient>
<linearGradient id="paint19_linear_2002_142" x1="329.539" y1="0.328842" x2="329.539" y2="19.8861" gradientUnits="userSpaceOnUse">
<stop stop-color="#00359E"/>
<stop offset="0.5" stop-color="#0042C5"/>
<stop offset="1" stop-color="#2970FF"/>
</linearGradient>
</defs>
</svg>
