<svg width="190" height="191" viewBox="0 0 190 191" fill="none" xmlns="http://www.w3.org/2000/svg">
<path d="M137.62 179.937C123.396 186.338 109.053 189.539 94.5916 189.539C68.5137 189.539 46.2289 180.293 27.7373 161.801C9.24573 143.073 0 120.669 0 94.5916C0 68.2766 9.24573 45.9919 27.7373 27.7374C46.466 9.24579 68.9878 0 95.3028 0C114.98 0 132.997 5.80825 149.355 17.4248C165.95 28.8042 177.567 43.7397 184.205 62.2313C187.998 72.8995 189.894 81.7897 189.894 88.9019V183.665C189.894 187.302 186.946 190.25 183.309 190.25H140.913C139.094 190.25 137.62 188.776 137.62 186.957V179.937ZM52.2742 94.5916C52.2742 106.208 56.4231 116.284 64.7206 124.818C73.2551 133.116 83.3307 137.264 94.9472 137.264C106.564 137.264 116.521 133.116 124.818 124.818C133.353 116.284 137.62 106.208 137.62 94.5916C137.62 83.2121 133.471 73.3737 125.174 65.0762C116.876 56.5416 106.919 52.2743 95.3028 52.2743C83.6863 52.2743 73.6107 56.423 65.0761 64.7206C56.5415 72.781 52.2742 82.738 52.2742 94.5916Z" fill="#221C44"/>
</svg>
