<svg width="67" height="67" viewBox="0 0 67 67" fill="none" xmlns="http://www.w3.org/2000/svg">
<g clip-path="url(#clip0_2045_259)">
<path d="M66.9079 36.0122H54.9407C44.4872 36.0122 36.0132 44.4864 36.0132 54.9397V66.9069C52.5118 65.6835 65.6845 52.5108 66.9079 36.0122Z" fill="#0040C1"/>
<path d="M30.988 66.9069V54.9397C30.988 44.4864 22.5139 36.0122 12.0605 36.0122H0.0932617C1.31657 52.5108 14.4894 65.6835 30.988 66.9069Z" fill="#0040C1"/>
<path d="M66.9079 30.9873C65.6845 14.4886 52.5118 1.31584 36.0132 0.0925293V12.0597C36.0132 22.5131 44.4872 30.9873 54.9407 30.9873H66.9079Z" fill="#0040C1"/>
<path d="M30.988 0.0925293C14.4894 1.31584 1.31657 14.4886 0.0932617 30.9873H12.0605C22.5139 30.9873 30.988 22.5131 30.988 12.0597V0.0925293Z" fill="#0040C1"/>
<path d="M22.7515 33.4997C27.3954 31.1793 31.1801 27.3947 33.5003 22.7507C35.8207 27.3947 39.6051 31.1793 44.2493 33.4997C39.6051 35.8199 35.8207 39.6046 33.5003 44.2485C31.1801 39.6046 27.3954 35.8199 22.7515 33.4997Z" fill="#0040C1"/>
</g>
<defs>
<clipPath id="clip0_2045_259">
<rect width="67" height="67" fill="white"/>
</clipPath>
</defs>
</svg>
