<svg width="172" height="67" viewBox="0 0 172 67" fill="none" xmlns="http://www.w3.org/2000/svg">
<g clip-path="url(#clip0_2045_258)">
<g clip-path="url(#clip1_2045_258)">
<g clip-path="url(#clip2_2045_258)">
<mask id="mask0_2045_258" style="mask-type:luminance" maskUnits="userSpaceOnUse" x="0" y="0" width="172" height="67">
<path d="M172 0H0V66.1538H172V0Z" fill="white"/>
</mask>
<g mask="url(#mask0_2045_258)">
<path d="M40.8273 0C34.1102 0 27.6684 2.66832 22.9188 7.41796L7.41796 22.9188C2.66832 27.6684 0 34.1102 0 40.8273C0 54.8149 11.3391 66.1538 25.3266 66.1538C32.0436 66.1538 38.4854 63.4854 43.2351 58.7358L53.9571 48.0138C53.9573 48.014 53.9571 48.0136 53.9571 48.0138L85.1973 16.7735C87.4658 14.5051 90.5424 13.2308 93.7504 13.2308C99.1212 13.2308 103.675 16.7312 105.253 21.5751L115.113 11.7158C110.615 4.67121 102.728 0 93.7504 0C87.0333 0 80.5915 2.66832 75.8419 7.41796L33.8796 49.3803C31.6112 51.6487 28.5346 52.9231 25.3266 52.9231C18.6462 52.9231 13.2308 47.5077 13.2308 40.8273C13.2308 37.6193 14.5051 34.5427 16.7735 32.2743L32.2743 16.7735C34.5427 14.5051 37.6193 13.2308 40.8273 13.2308C46.1983 13.2308 50.7515 16.7314 52.3301 21.5754L62.1897 11.716C57.6919 4.67134 49.8052 0 40.8273 0Z" fill="#0040C1"/>
<path d="M86.802 49.3803C84.5336 51.6487 81.457 52.9231 78.249 52.9231C72.8788 52.9231 68.3259 49.4235 66.7468 44.5804L56.8877 54.4395C61.3857 61.4832 69.2719 66.1538 78.249 66.1538C84.966 66.1538 91.4079 63.4854 96.1575 58.7358L138.12 16.7735C140.388 14.5051 143.465 13.2308 146.673 13.2308C153.353 13.2308 158.769 18.6462 158.769 25.3266C158.769 28.5346 157.494 31.6112 155.226 33.8796L139.725 49.3803C137.457 51.6487 134.38 52.9231 131.172 52.9231C125.801 52.9231 121.248 49.4229 119.669 44.5793L109.81 54.4387C114.308 61.4829 122.195 66.1538 131.172 66.1538C137.889 66.1538 144.331 63.4854 149.081 58.7358L164.581 43.2351C169.331 38.4854 171.999 32.0436 171.999 25.3266C171.999 11.3391 160.66 0 146.673 0C139.956 0 133.514 2.66832 128.764 7.41796L86.802 49.3803Z" fill="#0040C1"/>
</g>
</g>
</g>
</g>
<defs>
<clipPath id="clip0_2045_258">
<rect width="172" height="67" fill="white"/>
</clipPath>
<clipPath id="clip1_2045_258">
<rect width="172" height="67" fill="white"/>
</clipPath>
<clipPath id="clip2_2045_258">
<rect width="172" height="67" fill="white"/>
</clipPath>
</defs>
</svg>
