<svg width="100" height="67" viewBox="0 0 100 67" fill="none" xmlns="http://www.w3.org/2000/svg">
<g clip-path="url(#clip0_2045_257)">
<path d="M93.75 2.09374C93.75 3.2501 94.6827 4.18749 95.8333 4.18749H97.9167C99.0673 4.18749 100 3.2501 100 2.09374C100 0.937405 99.0673 0 97.9167 0H95.8333C94.6827 0 93.75 0.937405 93.75 2.09374Z" fill="#0040C1"/>
<path d="M33.3333 67H43.4538L40.5075 64.0389C39.7262 63.2537 38.6663 62.8125 37.5613 62.8125H33.3333C17.225 62.8125 4.16667 49.6889 4.16667 33.5C4.16667 17.3111 17.225 4.18752 33.3333 4.1875H66.6667C82.775 4.1875 95.8333 17.3111 95.8333 33.5C95.8333 49.6889 82.775 62.8125 66.6667 62.8125H54.1973C52.5397 62.8125 50.95 62.1507 49.7778 60.9728L46.3262 57.5038C44.3727 55.5405 41.723 54.4375 38.9603 54.4375H33.3333C21.8273 54.4375 12.5 45.0635 12.5 33.5C12.5 21.9365 21.8273 12.5625 33.3333 12.5625H66.6667C78.1727 12.5625 87.5 21.9365 87.5 33.5C87.5 45.0635 78.1727 54.4375 66.6667 54.4375H58.6602C57.0025 54.4375 55.4128 53.7757 54.2407 52.5978L50.7888 49.1288C48.8353 47.1655 46.1858 46.0625 43.4232 46.0625H33.3333C26.4298 46.0625 20.8333 40.438 20.8333 33.5C20.8333 26.562 26.4298 20.9375 33.3333 20.9375H66.6667C73.5702 20.9375 79.1667 26.562 79.1667 33.5C79.1667 40.3534 73.7058 45.9252 66.9187 46.06L66.9173 46.0625H63.8685C62.2108 46.0625 60.6212 45.4007 59.449 44.2228L55.9972 40.7538C54.3943 39.1427 52.3228 38.1111 50.1047 37.7927L50 37.6875H33.3333C31.0322 37.6875 29.1667 35.8127 29.1667 33.5C29.1667 31.1873 31.0322 29.3125 33.3333 29.3125H66.6667C68.9678 29.3125 70.8333 31.1873 70.8333 33.5C70.8333 35.8127 68.9678 37.6875 66.6667 37.6875H58.3333L61.2797 40.6486C62.061 41.4338 63.1208 41.875 64.2258 41.875H66.6667C71.269 41.875 75 38.1253 75 33.5C75 28.8747 71.269 25.125 66.6667 25.125H33.3333C28.731 25.125 25 28.8747 25 33.5C25 38.1253 28.731 41.875 33.3333 41.875H48.6315C50.2892 41.875 51.8788 42.5368 53.051 43.7147L56.5028 47.1837C58.4563 49.147 61.1058 50.25 63.8685 50.25H67.7083V50.2178C76.4278 49.6775 83.3333 42.3991 83.3333 33.5C83.3333 24.2493 75.8713 16.75 66.6667 16.75H33.3333C24.1287 16.75 16.6667 24.2493 16.6667 33.5C16.6667 42.7509 24.1287 50.25 33.3333 50.25H43.4232C45.0808 50.25 46.6705 50.9118 47.8427 52.0897L51.2945 55.5587C53.248 57.522 55.8975 58.625 58.6602 58.625H66.6667C80.4738 58.625 91.6667 47.3762 91.6667 33.5C91.6667 19.6238 80.4738 8.375 66.6667 8.375H33.3333C19.5262 8.375 8.33333 19.6238 8.33333 33.5C8.33333 47.3762 19.5262 58.625 33.3333 58.625H38.9603C40.618 58.625 42.2077 59.2868 43.3798 60.4647L46.8317 63.9337C48.7852 65.897 51.4347 67 54.1973 67H66.6667C85.0762 67 100 52.0015 100 33.5C100 14.9985 85.0762 -1.61746e-06 66.6667 0L33.3333 6.92217e-06C14.9238 8.53964e-06 -1.60941e-06 14.9985 0 33.5C1.60941e-06 52.0015 14.9239 67 33.3333 67Z" fill="#0040C1"/>
</g>
<defs>
<clipPath id="clip0_2045_257">
<rect width="100" height="67" fill="white"/>
</clipPath>
</defs>
</svg>
