<svg width="66" height="67" viewBox="0 0 66 67" fill="none" xmlns="http://www.w3.org/2000/svg">
<g clip-path="url(#clip0_2045_260)">
<path fill-rule="evenodd" clip-rule="evenodd" d="M42.1669 19.5729C39.4535 17.7324 36.2634 16.75 33 16.75V0C39.5267 0 45.907 1.96474 51.3338 5.64577C56.7607 9.32678 60.9903 14.5588 63.488 20.6801C65.9856 26.8013 66.6392 33.5372 65.3659 40.0355C64.0926 46.5338 60.9497 52.503 56.3345 57.188C51.7194 61.8732 45.8393 65.0637 39.438 66.3563C33.0366 67.6489 26.4013 66.9854 20.3714 64.45C14.3415 61.9144 9.18758 57.6207 5.56151 52.1116C1.93542 46.6025 0 40.1256 0 33.5H16.5C16.5 36.8128 17.4677 40.0513 19.2807 42.8058C21.0938 45.5603 23.6707 47.7072 26.6858 48.975C29.7007 50.2428 33.0183 50.5744 36.219 49.9281C39.4197 49.2818 42.3596 47.6866 44.6673 45.3441C46.9748 43.0014 48.5463 40.0169 49.1829 36.7678C49.8196 33.5186 49.4929 30.1507 48.244 27.0901C46.9951 24.0294 44.8803 21.4134 42.1669 19.5729Z" fill="#0040C1"/>
<path fill-rule="evenodd" clip-rule="evenodd" d="M16.5 7.25485e-06C16.5 2.19965 16.0732 4.37775 15.244 6.40995C14.4148 8.44216 13.1994 10.2887 11.6673 11.844C10.1351 13.3994 8.31616 14.6332 6.31428 15.475C4.3124 16.3168 2.1668 16.75 7.21231e-07 16.75L0 33.5C4.33362 33.5 8.6248 32.6335 12.6286 30.95C16.6323 29.2664 20.2702 26.7988 23.3345 23.688C26.3988 20.5774 28.8296 16.8843 30.488 12.8199C32.1464 8.75548 33 4.39928 33 0L16.5 7.25485e-06Z" fill="#0040C1"/>
</g>
<defs>
<clipPath id="clip0_2045_260">
<rect width="66" height="67" fill="white"/>
</clipPath>
</defs>
</svg>
