<svg width="64" height="63" viewBox="0 0 64 63" fill="none" xmlns="http://www.w3.org/2000/svg">
<path d="M31.6837 15.7031C31.6837 24.3757 24.591 31.4063 15.8418 31.4063H0V15.7031C0 7.03052 7.09262 0 15.8418 0C24.591 0 31.6837 7.03052 31.6837 15.7031Z" fill="#0040C1"/>
<path d="M31.6836 47.1094C31.6836 38.4368 38.7762 31.4062 47.5254 31.4062H63.3673V47.1094C63.3673 55.782 56.2746 62.8125 47.5254 62.8125C38.7762 62.8125 31.6836 55.782 31.6836 47.1094Z" fill="#0040C1"/>
<path d="M0 47.1094C0 55.782 7.09262 62.8125 15.8418 62.8125H31.6837V47.1094C31.6837 38.4368 24.591 31.4062 15.8418 31.4062C7.09262 31.4062 0 38.4368 0 47.1094Z" fill="#0040C1"/>
<path d="M63.3673 15.7031C63.3673 7.03052 56.2746 0 47.5254 0H31.6836V15.7031C31.6836 24.3757 38.7762 31.4063 47.5254 31.4063C56.2746 31.4063 63.3673 24.3757 63.3673 15.7031Z" fill="#0040C1"/>
</svg>
