<svg width="188" height="190" viewBox="0 0 188 190" fill="none" xmlns="http://www.w3.org/2000/svg">
<path d="M94.6641 0C141.319 2.57568e-05 180.088 33.7511 187.893 78.1688C188.152 79.643 187.34 81.0904 185.963 81.678L182.852 83.0061C182.846 83.0087 182.843 83.0156 182.846 83.0215C182.848 83.0274 182.846 83.0343 182.84 83.0369L70.3529 131.031C68.0345 132.02 67.6665 135.116 69.8314 136.407C77.0975 140.74 85.5894 143.23 94.6641 143.23C109.387 143.23 122.577 136.677 131.483 126.331C132.133 125.576 133.07 125.121 134.066 125.121H179.726C181.981 125.121 183.566 127.339 182.737 129.436C168.877 164.513 134.669 189.328 94.6641 189.328C42.3826 189.328 2.88666e-05 146.946 0 94.6641C0 42.3826 42.3826 0 94.6641 0ZM94.6641 46.0977C70.8451 46.0977 51.0315 63.2441 46.8925 85.8674C46.4495 88.289 48.9087 90.0632 51.173 89.0971L120.734 59.4168C122.999 58.4504 123.421 55.4478 121.365 54.092C113.704 49.0393 104.528 46.0977 94.6641 46.0977Z" fill="#221C44"/>
</svg>
