<svg width="32" height="32" viewBox="0 0 32 32" fill="none" xmlns="http://www.w3.org/2000/svg">
<path d="M21.9501 20.8161C21.9958 23.2887 22.0249 25.7645 21.9153 28.234C21.8887 28.8426 21.4508 29.7446 20.9237 29.9421C20.3946 30.1402 19.3504 29.7984 18.8232 29.3985C16.5098 27.6428 14.2978 25.7837 12.0579 23.9536C10.759 22.8925 10.0367 21.577 10.0183 20.0181C9.98723 17.4037 10.0031 14.7893 10.0126 12.1743C10.0177 10.8501 10.4745 9.61127 11.5352 8.6975C14.0051 6.5697 16.544 4.5001 19.1254 2.47569C20.3274 1.53344 21.7087 2.05966 21.9381 3.45013C21.978 3.69281 21.9603 3.94354 21.9603 4.19118C21.9622 5.67513 21.9191 7.16032 21.9704 8.64303C22.0661 11.4103 22.1193 14.1486 18.936 16.0442C20.8723 17.3839 21.9147 18.8951 21.9501 20.8161ZM11.9876 10.3777C14.0482 12.0418 15.873 13.5146 17.689 14.9806C19.4936 13.9449 20.3097 12.5433 20.2976 10.7405C20.2818 8.48082 20.2938 6.22116 20.2938 3.96087C20.1855 3.90144 20.0771 3.84139 19.9688 3.78196C17.3329 5.9599 14.6976 8.13786 11.9876 10.3777Z" fill="#0040C1"/>
</svg>
