<svg width="123" height="28" viewBox="0 0 123 28" fill="none" xmlns="http://www.w3.org/2000/svg">
<path d="M11.9501 18.8161C11.9958 21.2887 12.0249 23.7645 11.9153 26.234C11.8887 26.8426 11.4508 27.7446 10.9237 27.9421C10.3946 28.1402 9.35036 27.7984 8.82318 27.3985C6.5098 25.6428 4.2978 23.7837 2.05793 21.9536C0.758988 20.8925 0.0366555 19.577 0.0182803 18.0181C-0.0127675 15.4037 0.00308313 12.7893 0.0125876 10.1743C0.0176566 8.85006 0.474489 7.61127 1.53518 6.6975C4.00507 4.5697 6.54402 2.5001 9.12542 0.475686C10.3274 -0.466564 11.7087 0.059659 11.9381 1.45013C11.978 1.69281 11.9603 1.94354 11.9603 2.19118C11.9622 3.67513 11.9191 5.16032 11.9704 6.64303C12.0661 9.41034 12.1193 12.1486 8.93596 14.0442C10.8723 15.3839 11.9147 16.8951 11.9501 18.8161ZM1.9876 8.37771C4.04816 10.0418 5.87301 11.5146 7.68899 12.9806C9.49356 11.9449 10.3097 10.5433 10.2976 8.74049C10.2818 6.48082 10.2938 4.22116 10.2938 1.96087C10.1855 1.90144 10.0771 1.84139 9.96878 1.78196C7.33289 3.9599 4.69763 6.13786 1.9876 8.37771Z" fill="#0040C1"/>
<path d="M23.904 24.5H20.288L28.64 3.06H33.6L41.952 24.5H38.208L36.032 18.932H26.08L23.904 24.5ZM29.536 10.164L27.296 15.828H34.816L32.576 10.164L31.2 6.196H30.944L29.536 10.164ZM47.152 24.5H43.696V8.5H46.864V11.028H47.024C47.664 9.556 49.136 8.276 51.472 8.276C54.8 8.276 56.08 10.708 56.08 13.684V14.74H52.624V14.1C52.624 11.988 52.016 11.22 50 11.22C47.92 11.22 47.152 12.02 47.152 14.132V24.5ZM65.5858 24.82C60.6898 24.82 57.6497 21.492 57.6497 16.532C57.6497 11.604 60.6898 8.276 65.5858 8.276C70.4498 8.276 73.3938 11.604 73.3938 16.532C73.3938 21.492 70.4498 24.82 65.5858 24.82ZM65.5858 21.748C68.9138 21.748 70.0658 20.116 70.0658 16.532C70.0658 12.98 68.9138 11.348 65.5858 11.348C62.2258 11.348 61.0418 12.98 61.0418 16.532C61.0418 20.116 62.2258 21.748 65.5858 21.748ZM83.4295 24.82C78.5335 24.82 75.4935 21.492 75.4935 16.532C75.4935 11.604 78.5335 8.276 83.4295 8.276C88.2935 8.276 91.2375 11.604 91.2375 16.532C91.2375 21.492 88.2935 24.82 83.4295 24.82ZM83.4295 21.748C86.7575 21.748 87.9095 20.116 87.9095 16.532C87.9095 12.98 86.7575 11.348 83.4295 11.348C80.0695 11.348 78.8855 12.98 78.8855 16.532C78.8855 20.116 80.0695 21.748 83.4295 21.748ZM100.321 24.5C96.7688 24.5 94.9128 23.188 94.9128 19.604V11.476H92.2568V8.596H94.9768L95.7128 4.66H98.3688V8.596H103.169V11.476H98.3688V19.444C98.3688 21.108 99.0728 21.396 101.217 21.396H103.169V24.212C102.497 24.372 101.409 24.5 100.321 24.5ZM109.09 24.5H105.634V3.06H109.09V11.252H109.218C109.954 9.812 111.65 8.276 114.53 8.276C118.69 8.276 120.45 10.996 120.45 14.484V24.5H116.994V15.284C116.994 12.436 116.098 11.252 113.186 11.252C110.37 11.252 109.09 12.34 109.09 15.348V24.5Z" fill="#111827"/>
</svg>
