<svg width="60" height="60" viewBox="0 0 60 60" fill="none" xmlns="http://www.w3.org/2000/svg">
<path d="M29.0381 34.8154L28.458 34.4971C26.0625 33.1787 24.5743 30.6611 24.5742 27.9268V27.8516L29.0381 30.3086V34.8154ZM25.9219 26.5605C28.1732 25.3217 30.902 25.3218 33.1533 26.5605L33.9639 27.0059L29.5381 29.4424L25.1113 27.0059L25.9219 26.5605ZM30.0381 30.3086L34.502 27.8516V27.9268C34.5018 30.6612 33.0129 33.1787 30.6172 34.4971L30.0381 34.8154V30.3086Z" stroke="white"/>
<path d="M25.7686 20.2295C28.0625 18.9173 30.8783 18.909 33.1797 20.208L36.3926 22.0215C38.7486 23.3514 40.206 25.8473 40.2061 28.5527V31.5186C40.206 34.2446 38.726 36.7564 36.3418 38.0781L33.1289 39.8594C30.8536 41.1208 28.0865 41.1131 25.8184 39.8389L22.7021 38.0879C20.3387 36.76 18.876 34.2597 18.876 31.5488V28.5225C18.876 25.8323 20.3172 23.3475 22.6523 22.0117L25.7686 20.2295Z" stroke="white"/>
<path d="M25.917 14.5664C28.1708 13.3242 30.9044 13.324 33.1582 14.5664L41.4102 19.1152C43.8032 20.4344 45.2899 22.9511 45.29 25.6836V33.9102C45.2899 36.6521 43.7926 39.175 41.3867 40.4902L33.1348 45.002C30.893 46.2274 28.1812 46.2275 25.9395 45.002L17.6875 40.4902C15.2817 39.1749 13.7853 36.652 13.7852 33.9102V25.6836C13.7853 22.9511 15.2711 20.4344 17.6641 19.1152L25.917 14.5664Z" stroke="white"/>
<path d="M20.6104 23.9873L15.6218 21.1816" stroke="white"/>
<path d="M38.4414 24.001L43.5695 21.1168" stroke="white"/>
<path d="M29.5381 41.123L29.5381 46.1608" stroke="white"/>
<path d="M29.5361 52.3081L29.5361 58.5389" stroke="white"/>
<path d="M48.4434 18.376L53.907 15.3031" stroke="white"/>
<path d="M10.6338 18.3765L5.17013 15.3036" stroke="white"/>
<path d="M25.9004 9.05713C28.1652 7.79923 30.9188 7.7992 33.1836 9.05713L46.373 16.3833C48.7542 17.7059 50.2313 20.2151 50.2314 22.939V37.062C50.2314 39.786 48.7544 42.296 46.373 43.6187L33.1836 50.9448C30.9188 52.2027 28.1652 52.2027 25.9004 50.9448L12.7109 43.6187C10.3296 42.296 8.85254 39.786 8.85254 37.062V22.939C8.8527 20.2151 10.3297 17.7059 12.7109 16.3833L25.9004 9.05713Z" stroke="white"/>
<path d="M25.8232 2.69434C28.1261 1.38118 30.9511 1.38112 33.2539 2.69434L51.792 13.2666C54.1319 14.6011 55.5771 17.0885 55.5771 19.7822V40.332C55.5771 43.036 54.1214 45.5308 51.7676 46.8613L33.2285 57.3398C30.9385 58.634 28.1376 58.6342 25.8477 57.3398L7.30957 46.8613C4.9556 45.5308 3.5 43.036 3.5 40.332V19.7822C3.5 17.0885 4.94429 14.6011 7.28418 13.2666L25.8232 2.69434Z" stroke="white"/>
</svg>
