<svg width="60" height="60" viewBox="0 0 60 60" fill="none" xmlns="http://www.w3.org/2000/svg">
<path d="M28.2041 2.6001C29.9454 2.60019 31.5722 3.41403 33.0166 4.81885C34.4591 6.22188 35.7397 8.2326 36.8066 10.686C38.9412 15.5945 40.2519 22.3476 40.252 29.7856C40.252 37.2237 38.9412 43.9768 36.8066 48.8853C35.7397 51.3387 34.4591 53.3494 33.0166 54.7524C31.5722 56.1573 29.9454 56.9711 28.2041 56.9712C26.4626 56.9712 24.8351 56.1573 23.3906 54.7524C21.9482 53.3494 20.6675 51.3387 19.6006 48.8853C17.466 43.9768 16.1553 37.2237 16.1553 29.7856C16.1553 22.3476 17.4661 15.5945 19.6006 10.686C20.6675 8.23265 21.9482 6.2219 23.3906 4.81885C24.8351 3.41394 26.4626 2.6001 28.2041 2.6001Z" stroke="white" stroke-width="0.8"/>
<path d="M29.9941 2.59961C31.7355 2.59971 33.3623 3.41354 34.8066 4.81836C36.2491 6.22139 37.5297 8.23212 38.5967 10.6855C40.7312 15.594 42.042 22.3471 42.042 29.7852C42.042 37.2232 40.7312 43.9763 38.5967 48.8848C37.5297 51.3382 36.2491 53.3489 34.8066 54.752C33.3623 56.1568 31.7355 56.9706 29.9941 56.9707C28.2527 56.9707 26.6251 56.1569 25.1807 54.752C23.7382 53.3489 22.4575 51.3382 21.3906 48.8848C19.2561 43.9763 17.9453 37.2232 17.9453 29.7852C17.9453 22.3471 19.2561 15.594 21.3906 10.6855C22.4575 8.23216 23.7382 6.22141 25.1807 4.81836C26.6251 3.41345 28.2527 2.59961 29.9941 2.59961Z" stroke="white" stroke-width="0.8"/>
<path d="M31.79 2.59961C33.5314 2.59971 35.1582 3.41354 36.6025 4.81836C38.045 6.22139 39.3256 8.23212 40.3926 10.6855C42.5271 15.594 43.8379 22.3471 43.8379 29.7852C43.8379 37.2232 42.5271 43.9763 40.3926 48.8848C39.3256 51.3382 38.045 53.3489 36.6025 54.752C35.1582 56.1568 33.5314 56.9706 31.79 56.9707C30.0486 56.9707 28.421 56.1569 26.9766 54.752C25.5341 53.3489 24.2534 51.3382 23.1865 48.8848C21.052 43.9763 19.7412 37.2232 19.7412 29.7852C19.7412 22.3471 21.052 15.594 23.1865 10.6855C24.2534 8.23216 25.5341 6.22141 26.9766 4.81836C28.421 3.41345 30.0486 2.59961 31.79 2.59961Z" stroke="white" stroke-width="0.8"/>
<path d="M5.47698 17.7387C6.34824 16.235 7.86945 15.2374 9.81251 14.6933C11.7531 14.15 14.1412 14.05 16.8068 14.356C22.1396 14.9682 28.6636 17.2138 35.1277 20.9327C41.5918 24.6515 46.8055 29.1586 50.0039 33.4546C51.6027 35.602 52.7098 37.7127 53.2079 39.6591C53.7067 41.6079 53.6002 43.4194 52.7289 44.9232C51.8576 46.4269 50.3365 47.4246 48.3934 47.9686C46.4527 48.5119 44.0647 48.6119 41.3991 48.3059C36.0663 47.6937 29.5423 45.4481 23.0782 41.7292C16.6141 38.0104 11.4004 33.5032 8.20199 29.2073C6.60325 27.06 5.4961 24.9492 4.99799 23.0028C4.49926 21.054 4.60573 19.2425 5.47698 17.7387Z" stroke="white" stroke-width="0.8"/>
<path d="M6.37346 16.1928C7.24472 14.6891 8.76594 13.6915 10.709 13.1474C12.6496 12.6041 15.0377 12.5041 17.7033 12.8101C23.0361 13.4223 29.5601 15.6679 36.0242 19.3868C42.4883 23.1056 47.702 27.6127 50.9004 31.9087C52.4992 34.0561 53.6063 36.1668 54.1044 38.1132C54.6031 40.062 54.4967 41.8735 53.6254 43.3773C52.7541 44.881 51.233 45.8787 49.2899 46.4227C47.3492 46.966 44.9612 47.066 42.2955 46.76C36.9628 46.1478 30.4388 43.9022 23.9747 40.1833C17.5106 36.4645 12.2969 31.9573 9.09848 27.6614C7.49973 25.5141 6.39258 23.4033 5.89447 21.4569C5.39575 19.5081 5.50221 17.6966 6.37346 16.1928Z" stroke="white" stroke-width="0.8"/>
<path d="M7.26994 14.6464C8.14121 13.1427 9.66242 12.1451 11.6055 11.601C13.5461 11.0577 15.9342 10.9578 18.5998 11.2637C23.9326 11.8759 30.4566 14.1215 36.9207 17.8404C43.3848 21.5592 48.5984 26.0664 51.7969 30.3623C53.3956 32.5097 54.5028 34.6204 55.0009 36.5668C55.4996 38.5157 55.3932 40.3271 54.5219 41.8309C53.6506 43.3346 52.1295 44.3323 50.1864 44.8763C48.2457 45.4196 45.8577 45.5196 43.192 45.2136C37.8592 44.6014 31.3352 42.3558 24.8712 38.637C18.4071 34.9181 13.1934 30.411 9.99496 26.115C8.39622 23.9677 7.28907 21.8569 6.79096 19.9105C6.29223 17.9617 6.3987 16.1502 7.26994 14.6464Z" stroke="white" stroke-width="0.8"/>
<path d="M54.523 17.7402C53.6518 16.2364 52.1305 15.2388 50.1875 14.6948C48.2469 14.1514 45.8588 14.0515 43.1932 14.3575C37.8604 14.9696 31.3364 17.2153 24.8723 20.9341C18.4082 24.653 13.1945 29.1601 9.9961 33.456C8.39732 35.6034 7.29022 37.7141 6.7921 39.6605C6.29335 41.6094 6.3998 43.4209 7.27109 44.9246C8.14238 46.4284 9.66352 47.426 11.6066 47.97C13.5473 48.5134 15.9353 48.6133 18.6009 48.3074C23.9337 47.6952 30.4577 45.4496 36.9218 41.7307C43.3859 38.0119 48.5996 33.5047 51.798 29.2088C53.3968 27.0614 54.5039 24.9507 55.002 23.0043C55.5007 21.0555 55.3943 19.2439 54.523 17.7402Z" stroke="white" stroke-width="0.8"/>
<path d="M53.6256 16.1943C52.7543 14.6905 51.2331 13.6929 49.29 13.1489C47.3494 12.6056 44.9613 12.5056 42.2957 12.8116C36.9629 13.4237 30.4389 15.6694 23.9748 19.3882C17.5107 23.1071 12.2971 27.6142 9.09864 31.9101C7.49986 34.0575 6.39275 36.1682 5.89464 38.1146C5.39589 40.0635 5.50234 41.875 6.37362 43.3787C7.24492 44.8825 8.76605 45.8801 10.7092 46.4242C12.6498 46.9675 15.0378 47.0674 17.7035 46.7615C23.0363 46.1493 29.5603 43.9037 36.0244 40.1848C42.4884 36.466 47.7021 31.9588 50.9005 27.6629C52.4993 25.5155 53.6064 23.4048 54.1046 21.4584C54.6033 19.5096 54.4968 17.698 53.6256 16.1943Z" stroke="white" stroke-width="0.8"/>
<path d="M52.7301 14.6469C51.8588 13.1432 50.3376 12.1456 48.3945 11.6015C46.4539 11.0582 44.0658 10.9582 41.4002 11.2642C36.0674 11.8764 29.5434 14.122 23.0793 17.8409C16.6152 21.5597 11.4016 26.0669 8.20313 30.3628C6.60436 32.5102 5.49725 34.6209 4.99913 36.5673C4.50038 38.5161 4.60683 40.3276 5.47812 41.8314C6.34941 43.3351 7.87055 44.3328 9.81365 44.8768C11.7543 45.4201 14.1423 45.5201 16.808 45.2141C22.1408 44.6019 28.6648 42.3563 35.1288 38.6374C41.5929 34.9186 46.8066 30.4114 50.005 26.1155C51.6038 23.9682 52.7109 21.8574 53.209 19.911C53.7078 17.9622 53.6013 16.1507 52.7301 14.6469Z" stroke="white" stroke-width="0.8"/>
</svg>
