<svg width="190" height="191" viewBox="0 0 190 191" fill="none" xmlns="http://www.w3.org/2000/svg">
<path d="M49.3899 184.389C49.3899 188.026 46.4416 190.974 42.8046 190.974H6.58533C2.94836 190.974 0 188.026 0 184.389V94.664L0.00803872 93.4405C0.663112 41.7229 42.791 -2.26744e-06 94.664 0C146.945 2.2853e-06 189.328 42.3825 189.328 94.664V184.389C189.328 188.026 186.38 190.974 182.743 190.974H146.523C142.886 190.974 139.938 188.026 139.938 184.389V94.664C139.938 69.6598 119.668 49.3899 94.664 49.3899C69.6598 49.3899 49.3899 69.6598 49.3899 94.664V184.389Z" fill="#221C44"/>
</svg>
