<svg width="90" height="44" viewBox="0 0 90 44" fill="none" xmlns="http://www.w3.org/2000/svg">
<path d="M82.6545 6.41216C78.52 2.27772 73.0221 -0.000404556 67.1735 5.38868e-08C64.6046 1.06541e-06 62.0904 0.441519 59.6978 1.30995C57.3857 2.14981 55.2441 3.3688 53.3315 4.93203C49.6134 7.96987 46.9775 12.1745 45.8741 16.8134L0.569847 16.8124C0.25561 16.8124 -0.000395034 17.0684 0.000409583 17.3818L0 26.4079C-4.72038e-06 26.7222 0.255207 26.9774 0.569439 26.9774L4.43124 26.9778L4.43207 35.4333C4.43167 35.7471 4.68647 36.0019 5.00071 36.0019L14.0248 36.0019C14.339 36.0019 14.5943 35.7467 14.5942 35.4325L14.5942 26.9778L18.652 26.9778L18.6529 35.4333C18.6525 35.7471 18.9081 36.0027 19.2215 36.0019L28.2456 36.0019C28.5586 36.0031 28.815 35.7467 28.815 35.4325L28.8154 26.9782L45.8723 26.9778C46.9773 31.6159 49.6128 35.8209 53.3297 38.8592C55.2427 40.4212 57.3848 41.6398 59.6961 42.4813C62.0891 43.3494 64.6033 43.7916 67.1717 43.7912C73.0213 43.7901 78.5187 41.5131 82.656 37.3782C86.7916 33.2426 89.0686 27.7436 89.0679 21.895C89.0683 16.0456 86.7913 10.548 82.6556 6.41222L82.6545 6.41216ZM67.1735 33.5435C60.7493 33.5451 55.5226 28.3184 55.5236 21.8935C55.524 15.4706 60.7498 10.2447 67.1737 10.2458C73.5975 10.2462 78.8233 15.4721 78.8226 21.8947C78.8234 28.3189 73.5978 33.5442 67.1735 33.5435Z" fill="white"/>
</svg>
