<svg width="737" height="196" viewBox="0 0 737 196" fill="none" xmlns="http://www.w3.org/2000/svg">
<path d="M97.8422 3.37845e-05C101.569 3.37845e-05 104.59 3.0211 104.59 6.74777V47.2342C104.59 50.9609 101.569 53.9819 97.8422 53.9819H67.6331C60.1861 53.9819 54.1467 60.0141 54.1376 67.461L53.9901 188.945C53.9856 192.668 50.9659 195.684 47.2424 195.684H6.74777C3.02109 195.684 3.48469e-05 192.663 3.41728e-05 188.937L1.0679e-05 59.0427C4.78115e-06 26.4343 26.4343 1.51258e-05 59.0427 3.37845e-05H97.8422Z" fill="#221C44"/>
<path d="M211.71 1.68689C259.516 1.68704 299.242 36.2713 307.239 81.7852C307.505 83.2957 306.672 84.7786 305.262 85.3808L302.073 86.7421C302.068 86.7445 302.065 86.7511 302.067 86.7567C302.07 86.7624 302.067 86.7689 302.062 86.7713L186.8 135.949C184.424 136.963 184.047 140.135 186.265 141.458C193.71 145.898 202.411 148.451 211.709 148.451C226.795 148.451 240.311 141.735 249.437 131.134C250.103 130.36 251.064 129.894 252.084 129.894H298.87C301.181 129.894 302.805 132.166 301.955 134.315C287.754 170.257 252.702 195.684 211.71 195.684C158.14 195.684 114.712 152.257 114.711 98.6859C114.711 45.115 158.14 1.6869 211.71 1.68689ZM211.709 48.9213C187.303 48.9214 167.001 66.4907 162.759 89.6714C162.305 92.1528 164.825 93.9708 167.145 92.9809L238.423 62.5689C240.744 61.5787 241.176 58.502 239.07 57.1128C231.22 51.9354 221.817 48.9213 211.709 48.9213Z" fill="#221C44"/>
<path d="M378.143 188.937C378.143 192.663 375.122 195.684 371.395 195.684H334.283C330.556 195.684 327.535 192.663 327.535 188.937V96.9987L327.543 95.745C328.215 42.7519 371.381 -2.32336e-06 424.534 0C478.105 2.34166e-06 521.533 43.4278 521.533 96.9987V188.937C521.533 192.663 518.512 195.684 514.785 195.684H477.672C473.946 195.684 470.925 192.663 470.925 188.937V96.9987C470.925 71.3778 450.155 50.608 424.534 50.608C398.913 50.608 378.143 71.3778 378.143 96.9987V188.937Z" fill="#221C44"/>
<path d="M683.363 185.117C668.788 191.676 654.092 194.956 639.274 194.956C612.553 194.956 589.718 185.482 570.771 166.534C551.823 147.344 542.349 124.388 542.349 97.6667C542.349 70.7028 551.823 47.8684 570.771 29.1637C589.961 10.2161 613.038 0.742249 640.002 0.742249C660.165 0.742249 678.626 6.69375 695.388 18.5968C712.392 30.2568 724.295 45.5607 731.097 64.5084C734.983 75.4397 736.927 84.5491 736.927 91.8367V188.937C736.927 192.663 733.906 195.684 730.179 195.684H686.737C684.874 195.684 683.363 194.174 683.363 192.31V185.117ZM595.913 97.6667C595.913 109.57 600.164 119.894 608.666 128.639C617.411 137.141 627.735 141.392 639.638 141.392C651.541 141.392 661.744 137.141 670.246 128.639C678.991 119.894 683.363 109.57 683.363 97.6667C683.363 86.0066 679.112 75.9255 670.61 67.4234C662.108 58.6783 651.905 54.3058 640.002 54.3058C628.099 54.3058 617.775 58.5569 609.03 67.059C600.285 75.3182 595.913 85.5208 595.913 97.6667Z" fill="#221C44"/>
</svg>
