<svg width="173" height="232" viewBox="0 0 173 232" fill="none" xmlns="http://www.w3.org/2000/svg">
<path d="M87.9732 232C70.6984 232 55.4498 228.919 42.2271 222.758C29.0045 216.597 18.661 207.78 11.1966 196.308C3.7322 184.835 0 171.026 0 154.879V145.956H41.5873V154.879C41.5873 168.264 45.7461 178.355 54.0635 185.154C62.381 191.74 73.6842 195.033 87.9732 195.033C102.475 195.033 113.245 192.165 120.283 186.429C127.534 180.692 131.16 173.363 131.16 164.44C131.16 158.279 129.347 153.286 125.722 149.462C122.309 145.637 117.191 142.557 110.366 140.22C103.755 137.67 95.6508 135.333 86.0538 133.209L78.696 131.615C63.3407 128.216 50.1181 123.967 39.0281 118.868C28.1514 113.557 19.7273 106.652 13.7558 98.1539C7.99758 89.6557 5.11844 78.6081 5.11844 65.011C5.11844 51.4139 8.31747 39.8351 14.7155 30.2747C21.3268 20.5018 30.4974 13.0659 42.2271 7.96703C54.1702 2.65567 68.1392 0 84.1343 0C100.129 0 114.312 2.76185 126.681 8.28566C139.264 13.597 149.075 21.6703 156.112 32.5055C163.364 43.1282 166.989 56.5128 166.989 72.6593V82.2198H125.402V72.6593C125.402 64.1611 123.696 57.3626 120.283 52.2637C117.084 46.9524 112.392 43.1282 106.208 40.7912C100.023 38.2417 92.6651 36.967 84.1343 36.967C71.3382 36.967 61.8478 39.4102 55.663 44.2967C49.6915 48.9707 46.7057 55.4506 46.7057 63.7363C46.7057 69.2601 48.092 73.934 50.8645 77.7582C53.8503 81.5824 58.2223 84.7692 63.9805 87.3187C69.7387 89.8681 77.0965 92.0989 86.0538 94.011L93.4115 95.6044C109.407 99.0036 123.269 103.359 134.999 108.67C146.942 113.982 156.219 120.993 162.83 129.703C169.442 138.414 172.747 149.568 172.747 163.165C172.747 176.762 169.228 188.766 162.191 199.176C155.366 209.374 145.556 217.447 132.76 223.396C120.177 229.132 105.248 232 87.9732 232Z" fill="#0040C1"/>
</svg>
