<svg width="16" height="16" viewBox="0 0 16 16" fill="none" xmlns="http://www.w3.org/2000/svg">
<path d="M8 1.5C7.17773 1.5 6.5 2.17773 6.5 3C6.5 3.5625 6.81641 4.05664 7.28125 4.3125L5.8125 7.25L3.51562 5.60938C3.81641 5.33398 4 4.93555 4 4.5C4 3.67773 3.32227 3 2.5 3C1.67773 3 1 3.67773 1 4.5C1 5.17383 1.46289 5.73438 2.07812 5.92188L3 11V13.5H13V11L13.9219 5.92188C14.5371 5.73438 15 5.17383 15 4.5C15 3.67773 14.3223 3 13.5 3C12.6777 3 12 3.67773 12 4.5C12 4.93555 12.1836 5.33398 12.4844 5.60938L10.1875 7.25L8.71875 4.3125C9.18359 4.05664 9.5 3.5625 9.5 3C9.5 2.17773 8.82227 1.5 8 1.5ZM8 2.5C8.28125 2.5 8.5 2.71875 8.5 3C8.5 3.28125 8.28125 3.5 8 3.5C7.71875 3.5 7.5 3.28125 7.5 3C7.5 2.71875 7.71875 2.5 8 2.5ZM2.5 4C2.78125 4 3 4.21875 3 4.5C3 4.78125 2.78125 5 2.5 5C2.21875 5 2 4.78125 2 4.5C2 4.21875 2.21875 4 2.5 4ZM13.5 4C13.7812 4 14 4.21875 14 4.5C14 4.78125 13.7812 5 13.5 5C13.2188 5 13 4.78125 13 4.5C13 4.21875 13.2188 4 13.5 4ZM8 5.125L9.54688 8.21875L10.2969 8.40625L12.7969 6.625L12.0938 10.5H3.90625L3.20312 6.625L5.70312 8.40625L6.45312 8.21875L8 5.125ZM4 11.5H12V12.5H4V11.5Z" fill="#0040C1"/>
</svg>
