<svg width="326" height="190" viewBox="0 0 326 190" fill="none" xmlns="http://www.w3.org/2000/svg">
<path d="M231.31 0C283.591 6.59727e-05 325.974 42.3826 325.974 94.6641C325.974 146.537 284.251 188.665 232.533 189.32L231.31 189.328H94.6641L93.4404 189.32C41.7229 188.665 2.8641e-05 146.537 0 94.6641C0 42.3826 42.3826 1.96223e-06 94.6641 0H231.31ZM94.6641 46.0977C67.8414 46.0977 46.0967 67.8414 46.0967 94.6641C46.0967 121.487 67.8414 143.23 94.6641 143.23H231.31C258.132 143.23 279.876 121.487 279.876 94.6641C279.876 67.8415 258.132 46.0978 231.31 46.0977H94.6641Z" fill="#221C44"/>
</svg>
