<svg width="86" height="19" viewBox="0 0 86 19" fill="none" xmlns="http://www.w3.org/2000/svg">
<g clip-path="url(#clip0_145_100)">
<path d="M14.6124 0.935066C13.3619 -0.311689 11.3346 -0.311689 10.0843 0.935066C8.83389 2.18182 8.83389 4.20319 10.0843 5.44993C11.3346 6.69676 13.3619 6.69676 14.6124 5.44993C15.8628 4.20319 15.8628 2.18182 14.6124 0.935066Z" fill="#0040C1"/>
<path d="M0.12047 7.22717C-0.0401566 7.06698 -0.0401564 6.80731 0.12047 6.64712L3.29443 3.48243C3.45505 3.32226 3.71548 3.32226 3.87611 3.48243L12.3484 11.9301L20.8208 3.48243C20.9813 3.32226 21.2418 3.32226 21.4024 3.48243L24.5764 6.64712C24.737 6.80731 24.737 7.06698 24.5764 7.22717L12.6393 19.1295C12.4987 19.2697 12.2818 19.2872 12.1221 19.1821C12.0993 19.1671 12.0777 19.1496 12.0576 19.1295L8.88363 15.9648L0.12047 7.22717Z" fill="#0040C1"/>
<path d="M41.5755 14.2337L46.2901 1.19408H49.2989L42.9496 17.9425H40.0592L33.8047 1.19408H36.8846L41.5755 14.2337ZM48.5221 14.8243C48.5221 13.8479 48.8379 13.0684 49.4697 12.4857C50.1173 11.8873 50.9623 11.5093 52.0047 11.3518L54.9661 10.903C55.5347 10.8242 55.819 10.5486 55.819 10.0762C55.819 9.55647 55.6374 9.1391 55.2741 8.82417C54.9109 8.49345 54.366 8.32809 53.6394 8.32809C52.9445 8.32809 52.3916 8.52492 51.981 8.91866C51.5704 9.29662 51.3335 9.79269 51.2703 10.4069L48.759 9.83994C48.8696 8.80054 49.3671 7.91867 50.2515 7.19421C51.136 6.45407 52.2575 6.08395 53.6157 6.08395C55.29 6.08395 56.5219 6.48553 57.3116 7.2887C58.1171 8.09187 58.5199 9.12342 58.5199 10.3833V16.0999C58.5199 16.8558 58.5672 17.47 58.662 17.9425H56.1033C56.0244 17.7063 55.9849 17.218 55.9849 16.4779C55.2267 17.6905 54.0422 18.2968 52.4312 18.2968C51.2624 18.2968 50.3148 17.9583 49.5882 17.281C48.8774 16.5881 48.5221 15.7692 48.5221 14.8243ZM52.9524 16.1472C53.8053 16.1472 54.4923 15.9188 55.0135 15.4621C55.5506 14.9897 55.819 14.2259 55.819 13.1707V12.651L52.8102 13.0999C51.7836 13.2731 51.2703 13.7927 51.2703 14.6589C51.2703 15.0684 51.4203 15.4227 51.7204 15.722C52.0205 16.0054 52.4312 16.1472 52.9524 16.1472ZM67.8833 6.36742V9.15488C67.5675 9.10764 67.2674 9.08401 66.9831 9.08401C64.914 9.08401 63.8795 10.2101 63.8795 12.462V17.9425H61.1313V6.43829H63.8084V8.28085C64.0769 7.66666 64.5113 7.18637 65.1114 6.83987C65.7116 6.47769 66.3908 6.29655 67.1489 6.29655C67.4016 6.29655 67.6464 6.32018 67.8833 6.36742ZM72.1913 17.9425H69.4668V6.43829H72.1913V17.9425ZM69.5616 3.65083C69.214 3.30436 69.0403 2.88703 69.0403 2.39883C69.0403 1.91064 69.214 1.4933 69.5616 1.14683C69.9091 0.784625 70.3275 0.603516 70.8172 0.603516C71.3226 0.603516 71.749 0.776754 72.0965 1.12321C72.444 1.46968 72.6177 1.89489 72.6177 2.39883C72.6177 2.88703 72.444 3.30436 72.0965 3.65083C71.749 3.99729 71.3226 4.17052 70.8172 4.17052C70.3275 4.17052 69.9091 3.99729 69.5616 3.65083ZM77.7978 14.8715C78.4296 15.5172 79.1956 15.8401 80.0959 15.8401C80.9962 15.8401 81.7543 15.5172 82.3703 14.8715C83.0021 14.2259 83.3179 13.3282 83.3179 12.1786C83.3179 11.0447 83.0021 10.1628 82.3703 9.53284C81.7543 8.88719 80.9962 8.56432 80.0959 8.56432C79.1956 8.56432 78.4296 8.88719 77.7978 9.53284C77.1819 10.1628 76.8739 11.0447 76.8739 12.1786C76.8739 13.3125 77.1819 14.2101 77.7978 14.8715ZM80.0959 6.08395C81.8332 6.08395 83.2627 6.65874 84.3841 7.8084C85.5212 8.95806 86.0898 10.4147 86.0898 12.1786C86.0898 13.9424 85.5212 15.407 84.3841 16.5724C83.2627 17.722 81.8332 18.2968 80.0959 18.2968C78.3743 18.2968 76.9449 17.722 75.8078 16.5724C74.6864 15.407 74.1257 13.9424 74.1257 12.1786C74.1257 10.4147 74.6864 8.95806 75.8078 7.8084C76.9449 6.65874 78.3743 6.08395 80.0959 6.08395Z" fill="#0040C1"/>
</g>
<defs>
<clipPath id="clip0_145_100">
<rect width="86" height="19" fill="white"/>
</clipPath>
</defs>
</svg>
