<svg width="256" height="256" viewBox="0 0 256 256" fill="none" xmlns="http://www.w3.org/2000/svg">
<path d="M175.601 166.529C175.966 186.31 176.199 206.116 175.322 225.872C175.109 230.741 171.607 237.957 167.389 239.536C163.157 241.121 154.803 238.388 150.585 235.188C132.078 221.142 114.382 206.269 96.4634 191.629C86.0719 183.14 80.2932 172.616 80.1462 160.145C79.8979 139.23 80.0247 118.314 80.1007 97.3943C80.1413 86.8005 83.7959 76.8902 92.2815 69.58C112.041 52.5576 132.352 36.0008 153.003 19.8055C162.619 12.2675 173.67 16.4773 175.505 27.601C175.824 29.5425 175.682 31.5484 175.682 33.5294C175.697 45.401 175.353 57.2825 175.763 69.1442C176.529 91.2828 176.955 113.188 151.488 128.354C166.979 139.071 175.317 151.161 175.601 166.529ZM95.9008 83.0217C112.385 96.3345 126.984 108.117 141.512 119.845C155.948 111.559 162.477 100.346 162.381 85.9239C162.254 67.8466 162.351 49.7692 162.351 31.687C161.484 31.2115 160.617 30.7311 159.75 30.2556C138.663 47.6792 117.581 65.1028 95.9008 83.0217Z" fill="#0040C1"/>
</svg>
